<svg xmlns="http://www.w3.org/2000/svg" xmlns:xlink="http://www.w3.org/1999/xlink" width="1024" zoomAndPan="magnify" viewBox="0 0 768 767.999994" height="1024" preserveAspectRatio="xMidYMid meet" version="1.0"><defs><g/></defs><rect x="-76.8" width="921.6" fill="#ffffff" y="-76.799999" height="921.599993" fill-opacity="1"/><rect x="-76.8" width="921.6" fill="#000000" y="-76.799999" height="921.599993" fill-opacity="1"/><g fill="#ffffff" fill-opacity="1"><g transform="translate(86.14453, 519.749994)"><g><path d="M 246.875 -82.03125 L 285.15625 -284.375 L 343.5625 -284.375 L 280.46875 0 L 221.484375 0 L 175.203125 -190.234375 L 128.90625 0 L 69.921875 0 L 6.84375 -284.375 L 65.234375 -284.375 L 103.71875 -82.421875 L 150.59375 -284.375 L 200.203125 -284.375 Z M 246.875 -82.03125 "/></g></g><g transform="translate(435.947028, 519.749994)"><g><path d="M 172.859375 -74.609375 C 172.859375 -85.679688 168.953125 -94.175781 161.140625 -100.09375 C 153.328125 -106.019531 139.265625 -112.269531 118.953125 -118.84375 C 98.640625 -125.425781 82.554688 -131.90625 70.703125 -138.28125 C 38.410156 -155.726562 22.265625 -179.234375 22.265625 -208.796875 C 22.265625 -224.160156 26.59375 -237.863281 35.25 -249.90625 C 43.914062 -261.945312 56.351562 -271.351562 72.5625 -278.125 C 88.769531 -284.894531 106.96875 -288.28125 127.15625 -288.28125 C 147.46875 -288.28125 165.566406 -284.601562 181.453125 -277.25 C 197.335938 -269.894531 209.671875 -259.507812 218.453125 -246.09375 C 227.242188 -232.6875 231.640625 -217.453125 231.640625 -200.390625 L 173.046875 -200.390625 C 173.046875 -213.410156 168.941406 -223.535156 160.734375 -230.765625 C 152.535156 -237.992188 141.015625 -241.609375 126.171875 -241.609375 C 111.847656 -241.609375 100.710938 -238.578125 92.765625 -232.515625 C 84.828125 -226.460938 80.859375 -218.488281 80.859375 -208.59375 C 80.859375 -199.351562 85.515625 -191.609375 94.828125 -185.359375 C 104.140625 -179.109375 117.84375 -173.25 135.9375 -167.78125 C 169.269531 -157.75 193.550781 -145.3125 208.78125 -130.46875 C 224.019531 -115.625 231.640625 -97.132812 231.640625 -75 C 231.640625 -50.394531 222.328125 -31.09375 203.703125 -17.09375 C 185.085938 -3.09375 160.023438 3.90625 128.515625 3.90625 C 106.640625 3.90625 86.71875 -0.0976562 68.75 -8.109375 C 50.78125 -16.117188 37.078125 -27.085938 27.640625 -41.015625 C 18.203125 -54.953125 13.484375 -71.097656 13.484375 -89.453125 L 72.265625 -89.453125 C 72.265625 -58.078125 91.015625 -42.390625 128.515625 -42.390625 C 142.453125 -42.390625 153.328125 -45.21875 161.140625 -50.875 C 168.953125 -56.539062 172.859375 -64.453125 172.859375 -74.609375 Z M 172.859375 -74.609375 "/></g></g></g></svg>